<svg xmlns="http://www.w3.org/2000/svg" width="933.333" height="666.667"><defs><clipPath id="a"><path d="M0 500h700V0H0z"/></clipPath></defs><path d="M0 666.667h466.667V0H0z" fill="#270078"/><path d="M466.667 666.667h466.666V0H466.667z" fill="#e41e20"/><g clip-path="url(#a)" transform="matrix(1.33333 0 0 -1.33333 0 666.667)"><path d="M399.19 397.034c3.537 0 5.783-1.131 5.783-2.643 0-1.54-2.246-2.903-5.783-2.903-3.558 0-5.757 1.252-5.757 2.786 0 1.512 2.2 2.76 5.757 2.76m85.46-202.965c-2.673 4.732-12.339 4.71-13.735-.618l-19.517-.542 11.58 8.245c4.323-2.552 10.388.284 11.603 4.92 1.723 2.049 3.848 3.012 8.031 1.622-2.155 3.818-5.193 4.958-10.68 2.367-5.006 3.79-11.6-.81-10.6-4.627l-15.408-10.483c-11.183 3.337-31.437 8.534-31.437 8.534 2.412 2.537 4.858 4.893 7.265 7.464.87 1.507-.458 3.262-2.304 3.626-18.07 3.73-28.418 11.015-34.688 29.53-2.622 7.756 3.047 10.073 4.995 5.329 2.696-6.596 5.67-13.807 13.785-19.39 2.797-1.956 11.128-.358 6.201 4.316-5.103 4.204-7.3 6.01-9.815 16.233 0 5.178 5.28 7.5 8.223 2.537 3.15-10.182 3.472-14.566 9.175-21.128 4.321-4.963 9.956-8.3 12.754-8.224 5.034.07 10.102 5.507 3.37 9.458-9.889 3.95-13.502 9.347-14.957 14.496-1.592 8.983.146 13.332 5.566 8.913 7.686-8.734 22.36-25.002 30.044-32.577 8.613-6.597 18.496-6.812 26.362-.111 4.502 5.184 2.906 10.762-4.145 9.569-15.908-1.344-27.954 6.556-41.172 27.902-2.588 4.819-3.296 11.74 2.412 6.592 6.587-8.913 16.192-16.488 25.122-19.75 8.965-3.22 16.366-1.441 19.24 1.379 3.458 3.459 2.547 12.174-3.439 10.072-4.927-1.738-11.87-2.172-19.097.619-7.23 2.826-14.74 8.913-22.715 19.24-2.729 5.832-1.84 10.76 3.687 7.754 13.076-11.09 29.941-20.073 38.55-14.675 6.343 3.95 6.45 14.096-1.592 13.442-16.196-2.207-22.324 1.378-37.88 15.11-3.54 2.647-3.297 9.353 2.338 5.073 13.076-8.443 30.933-11.74 37.95-7.32 6.308 3.95 5.385 16.019-5.245 11.745-8.506-5.183-17.895-5.04-36.709 8.404-4.746 3.949-1.206 9.098 2.691 6.885 15.131-8.623 37.172-12.318 42.91 5.219 2.231 6.7-1.807 10.616-7.725 5.977-13.003-12.03-27.744-6.122-35.996-.07-2.363 1.393-6.699 8.444.918 7.136 19.702-4.495 39.19-.58 42.734 13.372 2.056 4.529-1.987 12.538-9.179 5.832-9.458-9.348-19.488-9.672-32.1-9.602-6.416 1.343-6.484 8.409-1.099 9.457 9.956-.214 19.771 4.135 27.637 8.554 7.691 4.419 14.068 10.616 16.09 19.205 1.24 7.68-6.168 15.834-10.63 7.68-6.593-11.92-21.192-23.155-37.423-25.182-.844 1.413-2.973 5.038-5.595 4.019-4.766-1.847-10.445-4.32-16.29-7.097-12.604-5.984-17.857-8.868-16.342-19.208 1.58-10.79-6.739-17.607-13.609-15.724-5.99 1.612-9.297 7.026-8.222 16.413.86 7.48 8.37 16.529 16.831 21.272 5.478 3.066 13.75 4.744 23.706 6.956 6.06 1.194 9.145 3.55 9.497 6.017 0 0-4.14-3.031-10.772-2.576-3.134.224-5.234 1.602-6.025 3.01 2.305.47 6.484-.074 10.24-.074 4.994.04 16.591 1.158 19.667 8.189.957 4.639-2.09 5.472-4.927 2.502-3.046-3.211-4.3-6.097-10.415-7.176-3.72-.654-7.44-1.413-12.226-.254 2.695 3.2 6.977 6.476 10.63 5.872 1.201-.2 2.798-1.31 4.077-3.301.781 5.073-.606 10.8-14.175 8.409.215 3.84-7.866 5.508-12.72 5.433-2.763-.07-8.398-1.703-12.47-3.656-6.45-1.997-12.828-3.445-20.342-3.99 4.36-3.73 5.176-3.95 9.531-7.1-6.587-2.461-11.689-7.535-13.994-10.871 0 0 7.69.215 9.64-.654-8.048-2.351-11.662-3.765-15.914-8.114 1.49-.255 3.72-.69 4.677-1.053.996-.36.738-1.014-.068-1.628-1.734-1.324-8.897-9.643-10.986-11.635v-256.75s22.86 23.733 18.556 27.466c-4.304 3.732-9.523 11.292-9.45 18.577.386 5.432 4.111 8.589 6.52 1.957 3.402-7.32 10.702-19.424 20.76-12.323 4.395 3.225 4.326 7.973-1.699 7.429-7.44.51-12.012 4.605-15.342 15.146-.605 5.797 1.807 5.652 5.171 1.922 4.326-4.963 12.935-12.463 22.432-8.444 5.278 2.212 6.767 6.776-1.206 7.9-7.549-.111-13.71 4.783-19.844 12.249-3.364 4.129 1.597 8.299 4.575 4.783 2.656-2.282 6.377-6.486 9.566-7.065 3.686-.724 8.256-.365 13.32 2.317 5.46 4.568 3.686 7.864-2.94 8.623-5.136-.255-7.934-2.207-14.56 2.212-11.909 8.05-21.377 18.806-22.857 31.743-.97 8.51 3.604 11.086 7.408 10.108 10.346-2.663 17.114-21.997 24.272-32.618 2.344-3.061 4.497-3.111 6.021-2.167 2.871 2.46 5.164 4.486 8.035 7.238 0 0 21.06-3.784 32.527-7.522l-12.768-4.538c-4.835 2.67-10.67-.21-10.67-4.841-4.576-3.164-4.208-6.873-2.234-10.453.602 2.493 1.116 5.73 4.73 6.16 5.158-2.133 11.17.912 11.17 4.94l15.061 5.92 15.22-8.615c0-5.824 5.517-7.67 11.258-6.095 2.706-1.681 4.446-4.596 5.361-7.713 1.695 4.495 1.341 7.669-1.312 9.875 1.523 5.81-6.622 11.4-12.926 7.679l-10.949 6.287 18.74.524c2.174-3.851 10.035-4.062 12.33 0 1.958.537 3.614.879 7.436-1.962-1.205 4.596-3.547 6.56-7.062 6.56"/><path d="M300.81 391.487c-3.537 0-5.784 1.364-5.784 2.903 0 1.513 2.247 2.643 5.783 2.643 3.56 0 5.757-1.247 5.757-2.759 0-1.535-2.198-2.787-5.757-2.787m38.205-22.294c-.806.614-1.065 1.268-.069 1.628.957.364 3.19.8 4.678 1.053-4.253 4.35-7.866 5.763-15.913 8.114 1.948.87 9.64.655 9.64.655-2.306 3.335-7.409 8.41-13.996 10.87 4.356 3.151 5.171 3.371 9.532 7.101-7.515.544-13.892 1.993-20.342 3.99-4.072 1.952-9.707 3.585-12.47 3.655-4.854.075-12.935-1.593-12.72-5.433-13.57 2.392-14.957-3.336-14.175-8.409 1.28 1.993 2.876 3.101 4.077 3.301 3.652.604 7.934-2.67 10.63-5.872-4.785-1.159-8.506-.4-12.227.254-6.113 1.08-7.368 3.965-10.415 7.176-2.837 2.971-5.884 2.137-4.927-2.502 3.076-7.03 14.673-8.149 19.668-8.189 3.755 0 7.935.544 10.24.075-.79-1.408-2.89-2.786-6.026-3.01-6.63-.455-10.77 2.575-10.77 2.575.35-2.467 3.436-4.823 9.496-6.017 9.956-2.212 18.227-3.889 23.706-6.955 8.462-4.744 15.971-13.792 16.831-21.272 1.074-9.388-2.232-14.8-8.223-16.414-6.87-1.882-15.188 4.936-13.608 15.725 1.514 10.34-3.739 13.223-16.34 19.208-5.848 2.776-11.526 5.25-16.292 7.097-2.622 1.018-4.75-2.607-5.596-4.02-16.23 2.027-30.83 13.263-37.422 25.182-4.463 8.154-11.87 0-10.63-7.68 2.022-8.589 8.4-14.785 16.09-19.205 7.866-4.419 17.68-8.768 27.636-8.554 5.386-1.048 5.317-8.114-1.099-9.457-12.612-.07-22.64.255-32.099 9.603-7.193 6.706-11.236-1.304-9.18-5.833 3.545-13.952 23.032-17.866 42.735-13.372 7.617 1.308 3.281-5.743.917-7.136-8.25-6.052-22.993-11.959-35.996.07-5.918 4.64-9.956.724-7.724-5.977 5.737-17.537 27.778-13.842 42.91-5.218 3.896 2.212 7.436-2.936 2.69-6.886-18.813-13.442-28.203-13.587-36.709-8.404-10.63 4.275-11.552-7.795-5.244-11.744 7.017-4.419 24.873-1.124 37.95 7.32 5.634 4.28 5.878-2.427 2.338-5.073-15.556-13.732-21.684-17.318-37.88-15.11-8.043.654-7.935-9.493-1.592-13.443 8.608-5.398 25.473 3.585 38.55 14.676 5.527 3.006 6.415-1.923 3.686-7.755-7.974-10.326-15.483-16.413-22.715-19.24-7.226-2.79-14.17-2.356-19.097-.619-5.986 2.102-6.896-6.613-3.437-10.07 2.873-2.82 10.273-4.6 19.238-1.38 8.931 3.261 18.535 10.836 25.122 19.75 5.708 5.148 5-1.773 2.412-6.592-13.217-21.346-25.263-29.247-41.17-27.903-7.052 1.193-8.649-4.385-4.147-9.568 7.866-6.7 17.75-6.487 26.362.11 7.686 7.575 22.36 23.844 30.044 32.577 5.42 4.42 7.16.07 5.567-8.913-1.455-5.148-5.069-10.546-14.956-14.496-6.734-3.95-1.665-9.388 3.37-9.458 2.797-.074 8.431 3.262 12.753 8.225 5.703 6.561 6.025 10.945 9.175 21.127 2.944 4.963 8.222 2.641 8.222-2.537-2.514-10.22-4.712-12.029-9.814-16.233-4.927-4.674 3.403-6.27 6.201-4.314 8.115 5.582 11.09 12.793 13.784 19.388 1.948 4.744 7.617 2.427 4.995-5.328-6.269-18.516-16.616-25.8-34.687-29.53-1.846-.364-3.175-2.119-2.305-3.626 2.407-2.57 4.854-4.928 7.266-7.465 0 0-20.255-5.196-31.438-8.533l-15.407 10.482c1.001 3.82-5.595 8.418-10.6 4.627-5.488 2.591-8.525 1.451-10.68-2.367 4.182 1.391 6.307.428 8.03-1.62 1.215-4.638 7.281-7.474 11.603-4.922l11.58-8.245-19.517.543c-1.396 5.328-11.062 5.35-13.734.617-3.515 0-5.858-1.965-7.062-6.56 3.821 2.84 5.478 2.5 7.437 1.961 2.293-4.062 10.155-3.85 12.33 0l18.738-.524-10.948-6.287c-6.305 3.723-14.449-1.867-12.927-7.679-2.652-2.206-3.007-5.38-1.312-9.875.916 3.117 2.656 6.032 5.362 7.713 5.74-1.573 11.26.272 11.26 6.096l15.217 8.615 15.063-5.92c0-4.028 6.01-7.073 11.17-4.939 3.612-.43 4.127-3.668 4.73-6.16 1.972 3.58 2.341 7.288-2.234 10.452 0 4.631-5.836 7.51-10.67 4.84l-12.77 4.54c11.468 3.737 32.528 7.52 32.528 7.52 2.871-2.752 5.164-4.776 8.035-7.237 1.523-.945 3.677-.895 6.02 2.167 7.16 10.621 13.926 29.955 24.273 32.617 3.803.978 8.38-1.598 7.407-10.108-1.48-12.937-10.947-23.693-22.856-31.743-6.626-4.419-9.424-2.466-14.56-2.212-6.627-.758-8.399-4.054-2.94-8.623 5.063-2.68 9.633-3.04 13.32-2.317 3.188.58 6.91 4.784 9.565 7.065 2.98 3.516 7.94-.654 4.575-4.783-6.132-7.466-12.294-12.359-19.843-12.249-7.974-1.124-6.485-5.687-1.206-7.899 9.497-4.02 18.105 3.48 22.431 8.443 3.365 3.731 5.777 3.875 5.171-1.922-3.33-10.54-7.9-14.635-15.342-15.145-6.025.544-6.093-4.204-1.699-7.43 10.06-7.1 17.36 5.003 20.762 12.323 2.407 6.632 6.133 3.476 6.518-1.957.074-7.285-5.145-14.844-9.449-18.577C327.14 124.542 350 100.81 350 100.81v256.75c-2.09 1.991-9.253 10.311-10.986 11.634" fill="#e41e20"/><path d="M171.191 68.623v-8.125h3.164c2.278 0 3.802.149 4.57.449.768.3 1.37.769 1.807 1.406.436.638.654 1.38.654 2.227 0 1.042-.306 1.901-.918 2.578-.612.677-1.386 1.101-2.324 1.27-.69.13-2.077.195-4.16.195zm-5.78-23.789v28.633h9.276c3.516 0 5.807-.144 6.875-.43 1.641-.43 3.014-1.364 4.121-2.803 1.107-1.438 1.66-3.298 1.66-5.576 0-1.758-.319-3.235-.957-4.433-.638-1.199-1.448-2.139-2.43-2.823-.985-.683-1.984-1.135-2.999-1.357-1.38-.274-3.379-.41-5.996-.41h-3.77V44.834zM196.875 59.17c0-3.242.749-5.7 2.246-7.373 1.497-1.673 3.399-2.51 5.703-2.51 2.305 0 4.196.83 5.674 2.49 1.478 1.66 2.217 4.15 2.217 7.47 0 3.282-.72 5.73-2.158 7.345-1.439 1.614-3.35 2.422-5.733 2.422-2.383 0-4.303-.818-5.761-2.451-1.459-1.634-2.188-4.1-2.188-7.393m-5.957-.195c0 2.917.436 5.364 1.309 7.343a13.45 13.45 0 0 0 2.666 3.926c1.126 1.159 2.359 2.019 3.701 2.578 1.783.755 3.841 1.133 6.172 1.133 4.218 0 7.594-1.308 10.127-3.926 2.532-2.617 3.798-6.256 3.798-10.918 0-4.622-1.256-8.24-3.769-10.85-2.513-2.61-5.873-3.915-10.078-3.915-4.258 0-7.644 1.299-10.157 3.896-2.513 2.598-3.769 6.175-3.769 10.733M223.36 44.834v28.398h5.78V49.658h14.375v-4.824zM247.461 73.467h5.781V44.834h-5.781zM277.07 55.361l5.605-1.777c-.859-3.125-2.288-5.447-4.287-6.963-1.999-1.517-4.534-2.276-7.607-2.276-3.802 0-6.927 1.3-9.375 3.897-2.448 2.598-3.672 6.15-3.672 10.654 0 4.766 1.231 8.467 3.691 11.104 2.461 2.636 5.697 3.955 9.708 3.955 3.502 0 6.347-1.035 8.535-3.106 1.301-1.223 2.278-2.98 2.93-5.273l-5.723-1.367c-.339 1.484-1.045 2.656-2.119 3.515-1.075.86-2.38 1.29-3.916 1.29-2.123 0-3.845-.762-5.166-2.286-1.322-1.523-1.983-3.99-1.983-7.402 0-3.62.651-6.198 1.953-7.735 1.302-1.536 2.995-2.304 5.078-2.304 1.536 0 2.858.488 3.965 1.465 1.107.976 1.901 2.512 2.383 4.61M287.461 73.467h5.781V44.834h-5.781zM313.926 56.162l-3.945 10.625-3.867-10.625zm10.644-11.328h-6.29l-2.5 6.504h-11.444l-2.363-6.504h-6.133l11.152 28.633h6.114zM337.265 44.834v28.633h21.231v-4.844h-15.45v-6.348h14.376v-4.824h-14.376v-7.793h15.997v-4.824zM373.594 54.15l5.625.547c.338-1.888 1.025-3.275 2.06-4.16 1.036-.886 2.432-1.328 4.19-1.328 1.86 0 3.264.393 4.209 1.181.943.788 1.416 1.71 1.416 2.764 0 .677-.2 1.253-.596 1.728-.398.476-1.091.89-2.08 1.241-.678.234-2.22.651-4.63 1.25-3.098.768-5.272 1.712-6.522 2.832-1.758 1.575-2.637 3.496-2.637 5.761 0 1.458.412 2.823 1.24 4.092.827 1.27 2.018 2.237 3.575 2.901 1.554.664 3.433.996 5.634.996 3.594 0 6.299-.788 8.116-2.364 1.816-1.575 2.769-3.678 2.86-6.308l-5.78-.254c-.248 1.472-.78 2.53-1.592 3.174-.815.644-2.035.967-3.662.967-1.68 0-2.996-.345-3.946-1.036-.613-.442-.918-1.035-.918-1.777 0-.677.286-1.257.86-1.738.728-.613 2.5-1.25 5.312-1.914 2.813-.664 4.893-1.35 6.24-2.06 1.348-.71 2.403-1.68 3.165-2.91.76-1.23 1.142-2.752 1.142-4.562 0-1.64-.457-3.176-1.367-4.609-.912-1.433-2.201-2.497-3.867-3.193-1.668-.697-3.744-1.045-6.231-1.045-3.621 0-6.4.837-8.34 2.51-1.941 1.672-3.1 4.111-3.476 7.314M401.758 44.834v28.633h5.78v-11.27h11.329v11.27h5.782V44.834h-5.782v12.52h-11.328v-12.52zM437.07 44.834v23.789h-8.496v4.844h22.754v-4.844h-8.477V44.834zM455.059 44.834v28.633h21.23v-4.844h-15.45v-6.348h14.376v-4.824H460.84v-7.793h15.996v-4.824zM488.184 44.834v23.789h-8.496v4.844h22.754v-4.844h-8.477V44.834zM505.996 73.467h5.781V44.834h-5.781zM523.73 44.834v23.789h-8.496v4.844h22.754v-4.844h-8.477V44.834zM329.487 437.24h42.822l2.956-5.586h-45.778zm36.878 7.349h2.187c.833-1.552 1.65-3.087 2.466-4.638h-36.876v.947c1.437 1.944 3.184 3.724 5.177 5.324 2.547 2.04 5.504 3.789 8.754 5.258 3.071-1.861 6.5-3.576 9.897-4.85 2.612-.98 6.288-2.041 8.395-2.041m-30.59 9.57c.555 1.715-2.597 2.352-2.907 4.214-.245 1.339.817 2.073 1.83 2.71.963.605 1.992 1.062 3.331 1.013 2.041-.05 3.61-1.225 4.328-1.372 1.845-.408 2.874-.097 3.755-.163-5.29 7.79-15.286 12.82-25.264 17.72 8.38-1.748 17.082-4.361 28.351-13.458-3.087 6.403-11.366 13.687-23.778 21.656 14.045-4.997 25.951-15.613 30.752-22.864.604-.898 2.973-2.548 4.067-3.74 3.707-4.017 5.047-7.774 5.617-11.432.131-.85-.637-.67-.996-.963-2.105.375-4.344 1.029-6.613 1.877-3.414 1.29-6.86 3.022-9.947 4.9l-.179.114-.18-.081c-3.478-1.57-6.81-3.446-9.668-5.651-2.058-1.585-3.888-3.347-5.34-5.275.261 3.593.93 7.186 2.841 10.795m-7.708-25.216h48.113l2.972-5.586h-51.085z" fill="#e9a61e"/></g></svg>